<mxfile host="app.diagrams.net" modified="2021-09-07T02:42:59.178Z" agent="5.0 (Macintosh; Intel Mac OS X 10_15_7) AppleWebKit/537.36 (KHTML, like Gecko) Chrome/92.0.4515.107 Safari/537.36" etag="ozERZxyM1-TMPAupKB6o" version="15.0.5" type="github">
  <diagram id="WhqhB2blRCWZLh-lh1c2" name="Page-1">
    <mxGraphModel dx="1724" dy="1014" grid="0" gridSize="10" guides="1" tooltips="1" connect="1" arrows="1" fold="1" page="1" pageScale="1" pageWidth="2339" pageHeight="3300" math="0" shadow="0">
      <root>
        <mxCell id="0" />
        <mxCell id="1" parent="0" />
        <mxCell id="0nvZ4E0IGYP_IzWUH9AB-10" style="edgeStyle=orthogonalEdgeStyle;rounded=0;orthogonalLoop=1;jettySize=auto;html=1;exitX=0.5;exitY=1;exitDx=0;exitDy=0;" edge="1" parent="1" source="0nvZ4E0IGYP_IzWUH9AB-1" target="0nvZ4E0IGYP_IzWUH9AB-3">
          <mxGeometry relative="1" as="geometry">
            <Array as="points">
              <mxPoint x="1160" y="1030" />
            </Array>
          </mxGeometry>
        </mxCell>
        <mxCell id="0nvZ4E0IGYP_IzWUH9AB-12" style="edgeStyle=orthogonalEdgeStyle;rounded=0;orthogonalLoop=1;jettySize=auto;html=1;exitX=0.5;exitY=1;exitDx=0;exitDy=0;entryX=0.5;entryY=0;entryDx=0;entryDy=0;" edge="1" parent="1" source="0nvZ4E0IGYP_IzWUH9AB-1" target="0nvZ4E0IGYP_IzWUH9AB-8">
          <mxGeometry relative="1" as="geometry">
            <Array as="points">
              <mxPoint x="980" y="1030" />
            </Array>
          </mxGeometry>
        </mxCell>
        <mxCell id="0nvZ4E0IGYP_IzWUH9AB-21" style="edgeStyle=orthogonalEdgeStyle;rounded=0;orthogonalLoop=1;jettySize=auto;html=1;exitX=0.25;exitY=1;exitDx=0;exitDy=0;entryX=0.5;entryY=0;entryDx=0;entryDy=0;startArrow=none;startFill=0;endArrow=classic;endFill=1;" edge="1" parent="1" source="0nvZ4E0IGYP_IzWUH9AB-1" target="0nvZ4E0IGYP_IzWUH9AB-6">
          <mxGeometry relative="1" as="geometry">
            <Array as="points">
              <mxPoint x="760" y="1030" />
            </Array>
          </mxGeometry>
        </mxCell>
        <mxCell id="0nvZ4E0IGYP_IzWUH9AB-22" style="edgeStyle=orthogonalEdgeStyle;rounded=0;orthogonalLoop=1;jettySize=auto;html=1;exitX=0.75;exitY=1;exitDx=0;exitDy=0;entryX=0.5;entryY=0;entryDx=0;entryDy=0;startArrow=none;startFill=0;endArrow=classic;endFill=1;" edge="1" parent="1" source="0nvZ4E0IGYP_IzWUH9AB-1" target="0nvZ4E0IGYP_IzWUH9AB-2">
          <mxGeometry relative="1" as="geometry">
            <Array as="points">
              <mxPoint x="1345" y="1030" />
            </Array>
          </mxGeometry>
        </mxCell>
        <mxCell id="0nvZ4E0IGYP_IzWUH9AB-1" value="KTVRoomVC" style="rounded=1;whiteSpace=wrap;html=1;fillColor=#dae8fc;strokeColor=#6c8ebf;" vertex="1" parent="1">
          <mxGeometry x="700" y="970" width="700" height="60" as="geometry" />
        </mxCell>
        <mxCell id="0nvZ4E0IGYP_IzWUH9AB-19" style="edgeStyle=orthogonalEdgeStyle;rounded=0;orthogonalLoop=1;jettySize=auto;html=1;exitX=0.5;exitY=1;exitDx=0;exitDy=0;entryX=0.79;entryY=-0.05;entryDx=0;entryDy=0;entryPerimeter=0;startArrow=none;startFill=0;endArrow=diamondThin;endFill=1;" edge="1" parent="1" source="0nvZ4E0IGYP_IzWUH9AB-2" target="0nvZ4E0IGYP_IzWUH9AB-4">
          <mxGeometry relative="1" as="geometry" />
        </mxCell>
        <mxCell id="0nvZ4E0IGYP_IzWUH9AB-2" value="LiveVideoPreviewView" style="rounded=1;whiteSpace=wrap;html=1;fillColor=#ffe6cc;strokeColor=#d79b00;" vertex="1" parent="1">
          <mxGeometry x="1280" y="1090" width="130" height="60" as="geometry" />
        </mxCell>
        <mxCell id="0nvZ4E0IGYP_IzWUH9AB-20" style="edgeStyle=orthogonalEdgeStyle;rounded=0;orthogonalLoop=1;jettySize=auto;html=1;exitX=0.5;exitY=1;exitDx=0;exitDy=0;startArrow=none;startFill=0;endArrow=diamondThin;endFill=1;" edge="1" parent="1" source="0nvZ4E0IGYP_IzWUH9AB-3">
          <mxGeometry relative="1" as="geometry">
            <mxPoint x="1160" y="1300" as="targetPoint" />
          </mxGeometry>
        </mxCell>
        <mxCell id="0nvZ4E0IGYP_IzWUH9AB-3" value="KTVRoomVideoView" style="rounded=1;whiteSpace=wrap;html=1;fillColor=#ffe6cc;strokeColor=#d79b00;" vertex="1" parent="1">
          <mxGeometry x="1100" y="1090" width="120" height="60" as="geometry" />
        </mxCell>
        <mxCell id="0nvZ4E0IGYP_IzWUH9AB-4" value="AVBaseVideoView" style="rounded=1;whiteSpace=wrap;html=1;fillColor=#d5e8d4;strokeColor=#82b366;" vertex="1" parent="1">
          <mxGeometry x="1100" y="1300" width="310" height="60" as="geometry" />
        </mxCell>
        <mxCell id="0nvZ4E0IGYP_IzWUH9AB-5" value="AVBaseAudio" style="rounded=1;whiteSpace=wrap;html=1;fillColor=#d5e8d4;strokeColor=#82b366;" vertex="1" parent="1">
          <mxGeometry x="920" y="1300" width="120" height="60" as="geometry" />
        </mxCell>
        <mxCell id="0nvZ4E0IGYP_IzWUH9AB-6" value="AVRoomManager" style="rounded=1;whiteSpace=wrap;html=1;fillColor=#d5e8d4;strokeColor=#82b366;" vertex="1" parent="1">
          <mxGeometry x="700" y="1300" width="120" height="60" as="geometry" />
        </mxCell>
        <mxCell id="0nvZ4E0IGYP_IzWUH9AB-15" style="edgeStyle=orthogonalEdgeStyle;rounded=0;orthogonalLoop=1;jettySize=auto;html=1;exitX=0.5;exitY=1;exitDx=0;exitDy=0;entryX=0.5;entryY=0;entryDx=0;entryDy=0;startArrow=none;startFill=0;endArrow=diamondThin;endFill=1;" edge="1" parent="1" source="0nvZ4E0IGYP_IzWUH9AB-7" target="0nvZ4E0IGYP_IzWUH9AB-5">
          <mxGeometry relative="1" as="geometry" />
        </mxCell>
        <mxCell id="0nvZ4E0IGYP_IzWUH9AB-7" value="AVBaseAudioManager" style="rounded=1;whiteSpace=wrap;html=1;fillColor=#ffe6cc;strokeColor=#d79b00;" vertex="1" parent="1">
          <mxGeometry x="920" y="1200" width="120" height="60" as="geometry" />
        </mxCell>
        <mxCell id="0nvZ4E0IGYP_IzWUH9AB-13" style="edgeStyle=orthogonalEdgeStyle;rounded=0;orthogonalLoop=1;jettySize=auto;html=1;exitX=0.5;exitY=1;exitDx=0;exitDy=0;entryX=0.5;entryY=0;entryDx=0;entryDy=0;endArrow=diamondThin;endFill=1;" edge="1" parent="1" source="0nvZ4E0IGYP_IzWUH9AB-8" target="0nvZ4E0IGYP_IzWUH9AB-7">
          <mxGeometry relative="1" as="geometry" />
        </mxCell>
        <mxCell id="0nvZ4E0IGYP_IzWUH9AB-8" value="KTVAudioManager" style="rounded=1;whiteSpace=wrap;html=1;fillColor=#ffe6cc;strokeColor=#d79b00;" vertex="1" parent="1">
          <mxGeometry x="920" y="1090" width="120" height="60" as="geometry" />
        </mxCell>
        <mxCell id="0nvZ4E0IGYP_IzWUH9AB-42" style="edgeStyle=orthogonalEdgeStyle;rounded=0;orthogonalLoop=1;jettySize=auto;html=1;exitX=0.25;exitY=1;exitDx=0;exitDy=0;entryX=0.535;entryY=-0.017;entryDx=0;entryDy=0;entryPerimeter=0;startArrow=none;startFill=0;endArrow=classic;endFill=1;" edge="1" parent="1" source="0nvZ4E0IGYP_IzWUH9AB-27" target="0nvZ4E0IGYP_IzWUH9AB-39">
          <mxGeometry relative="1" as="geometry">
            <Array as="points">
              <mxPoint x="1077" y="1559" />
            </Array>
          </mxGeometry>
        </mxCell>
        <mxCell id="0nvZ4E0IGYP_IzWUH9AB-51" style="edgeStyle=orthogonalEdgeStyle;rounded=0;orthogonalLoop=1;jettySize=auto;html=1;exitX=0.25;exitY=1;exitDx=0;exitDy=0;entryX=0.5;entryY=0;entryDx=0;entryDy=0;startArrow=none;startFill=0;endArrow=classic;endFill=1;" edge="1" parent="1" source="0nvZ4E0IGYP_IzWUH9AB-27" target="0nvZ4E0IGYP_IzWUH9AB-31">
          <mxGeometry relative="1" as="geometry">
            <Array as="points">
              <mxPoint x="780" y="1559" />
              <mxPoint x="780" y="1591" />
            </Array>
          </mxGeometry>
        </mxCell>
        <mxCell id="0nvZ4E0IGYP_IzWUH9AB-52" style="edgeStyle=orthogonalEdgeStyle;rounded=0;orthogonalLoop=1;jettySize=auto;html=1;exitX=0.75;exitY=1;exitDx=0;exitDy=0;startArrow=none;startFill=0;endArrow=classic;endFill=1;" edge="1" parent="1" source="0nvZ4E0IGYP_IzWUH9AB-27" target="0nvZ4E0IGYP_IzWUH9AB-29">
          <mxGeometry relative="1" as="geometry">
            <Array as="points">
              <mxPoint x="1347" y="1559" />
            </Array>
          </mxGeometry>
        </mxCell>
        <mxCell id="0nvZ4E0IGYP_IzWUH9AB-27" value="KTVRoomVC" style="rounded=1;whiteSpace=wrap;html=1;fillColor=#dae8fc;strokeColor=#6c8ebf;" vertex="1" parent="1">
          <mxGeometry x="710" y="1499" width="700" height="60" as="geometry" />
        </mxCell>
        <mxCell id="0nvZ4E0IGYP_IzWUH9AB-29" value="RTCLocalPreView" style="rounded=1;whiteSpace=wrap;html=1;fillColor=#ffe6cc;strokeColor=#d79b00;" vertex="1" parent="1">
          <mxGeometry x="1282" y="1623" width="130" height="60" as="geometry" />
        </mxCell>
        <mxCell id="0nvZ4E0IGYP_IzWUH9AB-53" style="edgeStyle=orthogonalEdgeStyle;rounded=0;orthogonalLoop=1;jettySize=auto;html=1;exitX=0.5;exitY=1;exitDx=0;exitDy=0;startArrow=none;startFill=0;endArrow=diamondThin;endFill=1;" edge="1" parent="1" source="0nvZ4E0IGYP_IzWUH9AB-31">
          <mxGeometry relative="1" as="geometry">
            <mxPoint x="780" y="1747" as="targetPoint" />
          </mxGeometry>
        </mxCell>
        <mxCell id="0nvZ4E0IGYP_IzWUH9AB-31" value="KTVRoomVideoView" style="rounded=1;whiteSpace=wrap;html=1;fillColor=#ffe6cc;strokeColor=#d79b00;" vertex="1" parent="1">
          <mxGeometry x="710" y="1623" width="139" height="60" as="geometry" />
        </mxCell>
        <mxCell id="0nvZ4E0IGYP_IzWUH9AB-32" value="CommonRTCVideoView" style="rounded=1;whiteSpace=wrap;html=1;fillColor=#d5e8d4;strokeColor=#82b366;" vertex="1" parent="1">
          <mxGeometry x="714" y="1753" width="135" height="60" as="geometry" />
        </mxCell>
        <mxCell id="0nvZ4E0IGYP_IzWUH9AB-55" style="edgeStyle=orthogonalEdgeStyle;rounded=0;orthogonalLoop=1;jettySize=auto;html=1;exitX=0.5;exitY=1;exitDx=0;exitDy=0;startArrow=none;startFill=0;endArrow=classic;endFill=1;" edge="1" parent="1" source="0nvZ4E0IGYP_IzWUH9AB-36">
          <mxGeometry relative="1" as="geometry">
            <mxPoint x="1169" y="1854" as="targetPoint" />
          </mxGeometry>
        </mxCell>
        <mxCell id="0nvZ4E0IGYP_IzWUH9AB-57" style="edgeStyle=orthogonalEdgeStyle;rounded=0;orthogonalLoop=1;jettySize=auto;html=1;exitX=0;exitY=0.25;exitDx=0;exitDy=0;entryX=1;entryY=0.25;entryDx=0;entryDy=0;dashed=1;startArrow=none;startFill=0;endArrow=classic;endFill=1;" edge="1" parent="1" source="0nvZ4E0IGYP_IzWUH9AB-36" target="0nvZ4E0IGYP_IzWUH9AB-38">
          <mxGeometry relative="1" as="geometry" />
        </mxCell>
        <mxCell id="0nvZ4E0IGYP_IzWUH9AB-36" value="RTCKitManager" style="rounded=1;whiteSpace=wrap;html=1;fillColor=#d5e8d4;strokeColor=#82b366;" vertex="1" parent="1">
          <mxGeometry x="1109" y="1753" width="120" height="60" as="geometry" />
        </mxCell>
        <mxCell id="0nvZ4E0IGYP_IzWUH9AB-58" style="edgeStyle=orthogonalEdgeStyle;rounded=0;orthogonalLoop=1;jettySize=auto;html=1;exitX=1;exitY=0.75;exitDx=0;exitDy=0;entryX=0;entryY=0.75;entryDx=0;entryDy=0;dashed=1;startArrow=none;startFill=0;endArrow=classic;endFill=1;" edge="1" parent="1" source="0nvZ4E0IGYP_IzWUH9AB-38" target="0nvZ4E0IGYP_IzWUH9AB-36">
          <mxGeometry relative="1" as="geometry" />
        </mxCell>
        <mxCell id="0nvZ4E0IGYP_IzWUH9AB-38" value="RTCAudioManager" style="rounded=1;whiteSpace=wrap;html=1;fillColor=#d5e8d4;strokeColor=#82b366;" vertex="1" parent="1">
          <mxGeometry x="904" y="1753" width="120" height="60" as="geometry" />
        </mxCell>
        <mxCell id="0nvZ4E0IGYP_IzWUH9AB-43" style="edgeStyle=orthogonalEdgeStyle;rounded=0;orthogonalLoop=1;jettySize=auto;html=1;exitX=0.25;exitY=1;exitDx=0;exitDy=0;entryX=0.667;entryY=0.033;entryDx=0;entryDy=0;entryPerimeter=0;startArrow=none;startFill=0;endArrow=classic;endFill=1;" edge="1" parent="1" source="0nvZ4E0IGYP_IzWUH9AB-39" target="0nvZ4E0IGYP_IzWUH9AB-38">
          <mxGeometry relative="1" as="geometry" />
        </mxCell>
        <mxCell id="0nvZ4E0IGYP_IzWUH9AB-44" style="edgeStyle=orthogonalEdgeStyle;rounded=0;orthogonalLoop=1;jettySize=auto;html=1;exitX=0.75;exitY=1;exitDx=0;exitDy=0;entryX=0.317;entryY=-0.017;entryDx=0;entryDy=0;entryPerimeter=0;startArrow=none;startFill=0;endArrow=classic;endFill=1;" edge="1" parent="1" source="0nvZ4E0IGYP_IzWUH9AB-39" target="0nvZ4E0IGYP_IzWUH9AB-36">
          <mxGeometry relative="1" as="geometry" />
        </mxCell>
        <mxCell id="0nvZ4E0IGYP_IzWUH9AB-49" style="edgeStyle=orthogonalEdgeStyle;rounded=0;orthogonalLoop=1;jettySize=auto;html=1;exitX=0;exitY=0.5;exitDx=0;exitDy=0;entryX=1;entryY=0.5;entryDx=0;entryDy=0;dashed=1;startArrow=none;startFill=0;endArrow=classic;endFill=1;" edge="1" parent="1" source="0nvZ4E0IGYP_IzWUH9AB-39" target="0nvZ4E0IGYP_IzWUH9AB-31">
          <mxGeometry relative="1" as="geometry" />
        </mxCell>
        <mxCell id="0nvZ4E0IGYP_IzWUH9AB-39" value="KtvRTCInteractor" style="rounded=1;whiteSpace=wrap;html=1;fillColor=#ffe6cc;strokeColor=#d79b00;" vertex="1" parent="1">
          <mxGeometry x="902" y="1623" width="327" height="60" as="geometry" />
        </mxCell>
        <mxCell id="0nvZ4E0IGYP_IzWUH9AB-56" style="edgeStyle=orthogonalEdgeStyle;rounded=0;orthogonalLoop=1;jettySize=auto;html=1;exitX=1;exitY=0.5;exitDx=0;exitDy=0;startArrow=none;startFill=0;endArrow=classic;endFill=1;dashed=1;" edge="1" parent="1" source="0nvZ4E0IGYP_IzWUH9AB-54">
          <mxGeometry relative="1" as="geometry">
            <mxPoint x="1352" y="1685" as="targetPoint" />
          </mxGeometry>
        </mxCell>
        <mxCell id="0nvZ4E0IGYP_IzWUH9AB-54" value="TMERTCManager" style="rounded=1;whiteSpace=wrap;html=1;fillColor=#f8cecc;strokeColor=#b85450;" vertex="1" parent="1">
          <mxGeometry x="1110" y="1860" width="120" height="60" as="geometry" />
        </mxCell>
        <mxCell id="0nvZ4E0IGYP_IzWUH9AB-60" style="edgeStyle=orthogonalEdgeStyle;rounded=0;orthogonalLoop=1;jettySize=auto;html=1;exitX=0.5;exitY=0;exitDx=0;exitDy=0;dashed=1;startArrow=none;startFill=0;endArrow=classic;endFill=1;" edge="1" parent="1" source="0nvZ4E0IGYP_IzWUH9AB-59">
          <mxGeometry relative="1" as="geometry">
            <mxPoint x="1250" y="1362" as="targetPoint" />
          </mxGeometry>
        </mxCell>
        <mxCell id="0nvZ4E0IGYP_IzWUH9AB-59" value="QAVVideoCtrl" style="rounded=1;whiteSpace=wrap;html=1;fillColor=#f8cecc;strokeColor=#b85450;" vertex="1" parent="1">
          <mxGeometry x="1100" y="1395" width="309" height="60" as="geometry" />
        </mxCell>
        <mxCell id="0nvZ4E0IGYP_IzWUH9AB-62" style="edgeStyle=orthogonalEdgeStyle;rounded=0;orthogonalLoop=1;jettySize=auto;html=1;exitX=0.5;exitY=0;exitDx=0;exitDy=0;dashed=1;startArrow=none;startFill=0;endArrow=classic;endFill=1;" edge="1" parent="1" source="0nvZ4E0IGYP_IzWUH9AB-61">
          <mxGeometry relative="1" as="geometry">
            <mxPoint x="980" y="1362" as="targetPoint" />
          </mxGeometry>
        </mxCell>
        <mxCell id="0nvZ4E0IGYP_IzWUH9AB-61" value="QAVAudioCtrl" style="rounded=1;whiteSpace=wrap;html=1;fillColor=#f8cecc;strokeColor=#b85450;" vertex="1" parent="1">
          <mxGeometry x="921" y="1395" width="118" height="60" as="geometry" />
        </mxCell>
      </root>
    </mxGraphModel>
  </diagram>
</mxfile>
